<svg xmlns="http://www.w3.org/2000/svg" viewBox="0 0 51 543" width="51" height="543">
	<style>
		tspan { white-space:pre }
		.shp0 { fill: #ffffff } 
	</style>
	<g id="ABOUT">
		<g id="ipad mockup">
			<g id="Smart Cover">
				<g id="overlays">
					<path id="shape" class="shp0" d="M37.23 16.68C33.62 14.84 28.79 12.73 22.62 9.67C16.44 6.61 14.79 5.54 11.68 5.54C8.57 5.54 6 9.61 6 15.35L6 219.54L6 244.2L6 525.94C6 533.54 8.98 537.19 12.09 537.19C15.49 537.19 17.2 536.22 23.37 533.16C29.54 530.1 33.62 528 37.23 526.16C42.33 523.56 45 518.33 45 512.16L45 244.2L45 219.54L45 30.68C45 24.51 42.33 19.27 37.23 16.68Z" />
				</g>
			</g>
		</g>
	</g>
</svg>